Patient4_TMGait_0pt6_02_left_15_EMG.mot
version=1
nRows=16
nColumns=33
inDegrees=no
endheader
time	1LAddLong	2LGlutMax	3LGlutMed	4LIliopsoas	5LSemiMemb	6LBicFemLong	7LRecFem	8LVastMed	9LVastLat	10LGasMed	11LTibAnt	12lTibPost	13LPeroneusLong	14LSol	15LExtDigLong	16LFlexDigLong	17RAddLong	18RGlutMax	19RGlutMed	20RIliopsoas	21RSemiMemb	22RBicFemLong	23RRecFem	24RVastMed	25RVastLat	26RGasMed	27RTibAnt	28RTibPost	29RPeroneusLong	30RSol	31RExtDigLong	32RFlexDigLong
18.41	-0.010376	0.31952	-0.061035	0.011292	0.002441	0.016022	-0.014954	0.022888	-0.31677	-0.013428	-0.057831	-0.00061	0.005188	-0.060577	-0.038757	-0.007782	0.085754	-0.59662	0.12009	-0.020752	-0.1918	0.013123	-0.066986	-0.092316	0.062866	0.000763	-0.072937	0	-0.93826	-0.028076	-0.001373	-0.006866
18.411	0.071716	0.41275	-0.054016	0.001221	0.005341	0.023193	0.002747	0.022125	-0.32166	-0.093842	0.00885	0.000458	-0.010529	-0.009613	0.10147	-0.000763	0.06958	-0.68207	-0.57495	-0.04425	-0.12726	0.045166	0.22675	-0.046234	0.000916	0.003357	-0.25681	-0.002899	1.4034	0.057678	0.00885	-0.007935
18.412	0.023193	0.49515	-0.037994	0.010986	-0.003357	0.011597	0.020447	0.018616	-0.3363	-0.092468	-0.023804	0.001831	0.022736	-0.02655	-0.031738	-0.007172	-0.041351	-0.7901	-0.35736	-0.069733	0.065308	0.068512	0.26001	0.028839	-0.18402	0.00061	-0.33112	-0.008545	1.1455	0.26489	-0.006866	-0.008698
18.413	0.005951	0.51422	-0.033722	0.004578	0.005341	0.00885	0.027771	0.013123	-0.35675	-0.052948	-0.012207	-0.003204	0.047455	-0.020142	0.2005	-0.007935	-0.077667	-0.85663	-0.24246	-0.039063	0.066376	0.1088	0.024261	0.03006	-0.17807	-0.015869	-0.2269	-0.00824	0.69565	0.42954	0.003204	-0.01358
18.414	0.024719	0.5571	-0.026398	-0.00885	0.011292	0.008087	0.052948	0.013733	-0.39215	0.003967	0.027008	0.003204	0.027008	-0.037842	0.001831	0.000305	-0.044556	-0.88196	0.23758	-0.062408	0.3038	0.058289	-0.1358	-0.085602	-0.061493	-0.009308	0.077972	-0.010529	-2.1776	0.11414	-0.005951	-0.010681
18.415	-0.005798	0.61172	-0.045471	0.004272	0.001831	0.039368	0.043945	0.018311	-0.41824	0.03952	0.10819	0.005493	-0.016327	-0.020142	-0.056458	0.001373	-0.041962	-0.92071	1.161	-0.11887	0.26291	0.024567	-0.057068	0.023041	0.063171	-0.009003	0.23148	-0.004578	-2.0183	-0.086212	-0.008698	-0.010071
18.416	0.00885	0.62866	-0.049133	0.030823	0.003052	0.036011	0.041351	0.020905	-0.44052	-0.001831	0.12772	0.005646	-0.024109	-0.011902	0.12283	0.00061	-0.024109	-1.0207	0.8815	-0.012665	0.011139	0.13031	-0.085144	0.056	0.16007	0.001526	0.22385	-0.002289	-0.55267	-0.089417	-0.002594	-0.009155
18.417	0.01709	0.6279	-0.043793	0.042572	-0.003052	0.009613	0.030365	0.02182	-0.47989	-0.037842	0.10742	0.006714	-0.041046	-0.020905	-0.044556	-0.006256	-0.046692	-1.1787	0.018005	0.007019	0.071411	0.12207	-0.19119	0.15381	0.25559	0.001221	-0.035553	-0.007935	0.029144	0.081024	0	-0.001984
18.418	0.016937	0.63278	-0.050812	0.037384	-0.03006	-0.045929	0.029755	0.017395	-0.54062	-0.08194	0.058136	0.007172	0.027618	-0.015259	-0.17822	-0.006256	-0.061646	-1.1554	-0.20721	-0.073547	0.10437	0.11887	-0.11627	0.2066	0.20874	-0.001068	-0.10147	-0.007172	-0.078583	0.15533	0.002136	-0.001526
18.419	0.011902	0.672	-0.055237	-0.002136	-0.003357	-0.051422	0.02533	0.00412	-0.53787	-0.083618	0.093231	0.005798	0.002441	0.040741	-0.089417	-0.001678	-0.045319	-1.0788	-0.2861	-0.17319	-0.064392	0.13534	-0.21668	0.003052	0.13504	-0.008392	-0.023193	0	0.50751	0.14801	-0.003815	-0.00824
18.42	0.011139	0.66177	-0.047302	0.000763	-0.019226	-0.015564	0.005341	0.01709	-0.49774	-0.052185	0.13153	-0.005035	-0.030365	0.070953	0.10727	-0.004272	-0.020142	-1.0089	-0.037537	-0.16586	-0.010223	0.089722	-0.15854	0.028229	0.19684	-0.011749	0.18219	-0.001221	0.39063	0.10681	-0.002441	0.003357
18.421	0.009613	0.62882	-0.056305	-0.009155	-0.031891	-0.034027	0.018616	0.010376	-0.40695	-0.035553	0.065308	-0.002136	-0.016327	0.072327	0.41077	0.002747	0.00824	-0.89096	0.48691	-0.10559	-0.006409	0.032654	0.10361	-0.003357	0.094299	0.001373	0.21805	-0.002899	0.31479	0.15945	-0.000916	-0.002899
18.422	0.002441	0.63004	-0.057373	0.002136	-0.017853	-0.026855	0.023804	0.017395	-0.3183	-0.057831	-0.13886	0.004578	0.10376	0.09491	0.23727	0.007629	-0.00473	-0.91965	0.31799	-0.17029	-0.053864	-0.02121	0.112	0.024567	0.020599	-0.018005	0.17441	0.000305	0.42801	0.14648	-0.001678	-0.00473
18.423	0.00946	0.62485	-0.079498	0.01358	-0.021362	-0.035858	0.017395	0.020905	-0.24384	-0.02594	-0.21378	0.002899	0.09552	0.076599	0.034485	0.008698	-0.019989	-0.89645	0.15701	-0.11963	-0.085144	-0.003815	0.12344	-0.017395	-0.053253	-0.022888	0.2536	-0.003967	0.1265	0.035706	-0.00061	-0.012665
18.424	0.01236	0.58899	-0.10605	0.017242	0.005188	-0.049438	0.024719	0.013275	-0.16022	0.004425	-0.1294	0.001678	0.038147	0.002747	0.11841	-0.00061	-0.012512	-0.858	0.009155	0.12955	-0.059509	0.037384	0.26504	-0.047913	-0.11063	-0.021515	0.25299	-0.003967	0.092163	-0.035095	-0.003357	-0.010681
18.425	0.011139	0.58685	-0.13733	0.004272	0.020752	-0.03891	0.010223	0.010071	-0.080872	0.046387	-0.019684	0.005188	0.008087	-0.04425	-0.26138	-0.001068	-0.014343	-0.74616	-0.27802	0.28397	-0.036163	-0.009613	0.33493	-0.11627	-0.093689	-0.018158	0.015259	-0.006256	0.3624	-0.050507	-0.001678	-0.00351
